<?xml version="1.0" encoding="iso-8859-1"?>
<!-- Generator: Adobe Illustrator 12.0.0, SVG Export Plug-In . SVG Version: 6.00 Build 51448)  -->
<!DOCTYPE svg PUBLIC "-//W3C//DTD SVG 1.1//EN" "http://www.w3.org/Graphics/SVG/1.1/DTD/svg11.dtd" [
	<!ENTITY ns_svg "http://www.w3.org/2000/svg">
	<!ENTITY ns_xlink "http://www.w3.org/1999/xlink">
]>
<svg  version="1.1" id="Layer_1" xmlns="&ns_svg;" xmlns:xlink="&ns_xlink;" width="144.445" height="3.889"
	 viewBox="0 0 144.445 3.889" style="overflow:visible;enable-background:new 0 0 144.445 3.889;" xml:space="preserve">
<g>
	<path style="fill:none;stroke:#000000;" d="M0,0.5c1.761,0,1.761,2.889,3.521,2.889S5.282,0.5,7.043,0.5
		c1.76,0,1.76,2.889,3.52,2.889c1.759,0,1.759-2.889,3.519-2.889S15.84,3.389,17.6,3.389c1.76,0,1.76-2.889,3.52-2.889
		c1.761,0,1.761,2.889,3.522,2.889c1.761,0,1.761-2.889,3.521-2.889c1.76,0,1.76,2.889,3.52,2.889s1.76-2.889,3.52-2.889
		c1.761,0,1.761,2.889,3.521,2.889c1.762,0,1.762-2.889,3.524-2.889c1.761,0,1.761,2.889,3.521,2.889S47.53,0.5,49.291,0.5
		s1.761,2.889,3.522,2.889S54.574,0.5,56.335,0.5c1.761,0,1.761,2.889,3.521,2.889c1.761,0,1.761-2.889,3.522-2.889
		c1.762,0,1.762,2.889,3.523,2.889c1.761,0,1.761-2.889,3.522-2.889c1.762,0,1.762,2.889,3.524,2.889
		c1.761,0,1.761-2.889,3.522-2.889c1.762,0,1.762,2.889,3.523,2.889S82.756,0.5,84.518,0.5c1.762,0,1.762,2.889,3.524,2.889
		c1.76,0,1.76-2.889,3.52-2.889c1.762,0,1.762,2.889,3.523,2.889c1.76,0,1.76-2.889,3.52-2.889c1.762,0,1.762,2.889,3.524,2.889
		c1.761,0,1.761-2.889,3.522-2.889c1.763,0,1.763,2.889,3.525,2.889c1.762,0,1.762-2.889,3.522-2.889
		c1.763,0,1.763,2.889,3.524,2.889c1.764,0,1.764-2.889,3.526-2.889s1.763,2.889,3.526,2.889c1.762,0,1.762-2.889,3.522-2.889
		c1.763,0,1.763,2.889,3.526,2.889s1.764-2.889,3.526-2.889c1.764,0,1.764,2.889,3.527,2.889c1.767,0,1.767-2.889,3.533-2.889
		s1.767,2.889,3.533,2.889"/>
</g>
<rect style="fill:none;" width="144.445" height="3.889"/>
</svg>
